<svg id="aa49a1ec-3d41-4eb1-b2f5-4b707f99b695" data-name="Icon" xmlns="http://www.w3.org/2000/svg" viewBox="0 0 286.78 101.38"><title>icon</title><path d="M11.14,197.23V95.85h37.7q15.58,0,27.68,6.45a46.25,46.25,0,0,1,18.74,18,51.8,51.8,0,0,1,6.65,26.31,51.59,51.59,0,0,1-6.65,26.28,46,46,0,0,1-18.74,17.92q-12.09,6.42-27.68,6.42ZM29,181.57H48.84a35.76,35.76,0,0,0,18.7-4.79A31.11,31.11,0,0,0,79.6,164.13a37.74,37.74,0,0,0,4.05-17.52q0-15.29-9.2-25.19t-25.61-9.91H29Z" transform="translate(-11.14 -95.85)" style="fill:#0496ff"/><path d="M119.05,197.23V95.85h69.47v15.66H136.86v26.27h50.62v15.66H136.86v28.13h51.66v15.66Z" transform="translate(-11.14 -95.85)" style="fill:#0496ff"/><path d="M196.09,95.85h20.19L247,177.93l30.73-82.08h20.19L258.14,197.23H236Z" transform="translate(-11.14 -95.85)" style="fill:#0496ff"/></svg>