<svg id="1e8b4eef-3f47-4e39-b5f2-ebe27227d453" data-name="Logo" xmlns="http://www.w3.org/2000/svg" viewBox="0 0 295.96 61.98"><title>logo</title><path d="M173.06,31.63a106.63,106.63,0,0,0-17.93,5.46l-.67,1.38a80.81,80.81,0,0,0-7.81,21.08c-.28,1.57-.91,2.36-1.89,2.36a2.41,2.41,0,0,1-1.93-1.1,2.82,2.82,0,0,1-.67-1.8,23.4,23.4,0,0,1,1.05-4.89,65.46,65.46,0,0,1,2.18-6.53c.28-.7,1.16-2.75,2.65-6.13.36-.82.72-1.67,1.09-2.57-.59.23-1.4.56-2.44,1a3,3,0,0,1-1.21.3c-.87,0-1.31-.66-1.31-2a2.17,2.17,0,0,1,1.1-2,15.18,15.18,0,0,1,3-1.3c1.51-.56,2.7-1,3.57-1.39.56-1,1.62-3,3.19-6.05q.42-.84,2.81-4.78a159.44,159.44,0,0,0,8.9-16.38,39.25,39.25,0,0,1,2.36-5,2.48,2.48,0,0,1,2-1.09,1.72,1.72,0,0,1,2,1.93q0,4.41-12,23.81a35.75,35.75,0,0,0-2.89,5.55l2.1-.59q8.56-2.48,15.58-4.33,4.82-8.89,11.84-19.73c.81-1.29,1.28-2.09,1.43-2.4.67-1.2,1.38-1.8,2.14-1.8a1.94,1.94,0,0,1,1.59.79A2.39,2.39,0,0,1,193.35,5a9.81,9.81,0,0,1-1.64,4.33q-.37.68-3.44,5.37Q182.89,23,181.5,25.79c.82-.08,1.43-.12,1.85-.12,2.21,0,3.32.54,3.32,1.63a2.74,2.74,0,0,1-1,2,2.52,2.52,0,0,1-1.76.75h-1.64a18.27,18.27,0,0,0-3,.38q-8.91,15.87-11.64,27.84c-.44,1.79-1.14,2.69-2.1,2.69a2.62,2.62,0,0,1-2.05-1.39,3.69,3.69,0,0,1-.63-2Q162.78,53.47,173.06,31.63Z" transform="translate(-0.39 -0.26)"/><path d="M184.15,49.39v.76a2.71,2.71,0,0,0,.46,1.59,3.85,3.85,0,0,0,3.45,1.56q5.24,0,12.13-8.07c.81-.92,1.5-1.38,2.06-1.38a1.07,1.07,0,0,1,.84.46,1.08,1.08,0,0,1,.25.63q0,1.64-4,5.54a30.24,30.24,0,0,1-6.72,5A14,14,0,0,1,186,57.41a6.12,6.12,0,0,1-5-2.18,6.4,6.4,0,0,1-1.22-4.12q0-7.09,6.68-13.9,5.41-5.53,9.45-5.54a3.21,3.21,0,0,1,2,.67A2.82,2.82,0,0,1,199,34.65a10.78,10.78,0,0,1-2.05,5.46A21.92,21.92,0,0,1,184.15,49.39Zm.92-3.27a17.11,17.11,0,0,0,4.62-2.27,18.53,18.53,0,0,0,4.66-5.12,3.55,3.55,0,0,0,.63-1.81c0-.56-.26-.84-.79-.84a5.9,5.9,0,0,0-3.11,1.64A21.49,21.49,0,0,0,185.07,46.12Z" transform="translate(-0.39 -0.26)"/><path d="M216.82,50.53a31.13,31.13,0,0,1-2.73,4.11c-1.76,2.18-3.51,3.28-5.25,3.28a3.92,3.92,0,0,1-3.53-2.15,6.44,6.44,0,0,1-.79-3.27,22.52,22.52,0,0,1,2.94-10.29,27.12,27.12,0,0,1,7.89-9.61,10,10,0,0,1,5.84-2.19,4.21,4.21,0,0,1,2.94,1.09,3,3,0,0,1,1,2.19,6.91,6.91,0,0,1-.71,2.56,2.79,2.79,0,0,1,.63,1.55,7,7,0,0,1-1.17,2.9,31.42,31.42,0,0,0-2.44,5.46,18.13,18.13,0,0,0-1.3,5.79,4.1,4.1,0,0,0,1.05,2.9,7.65,7.65,0,0,0,1.72,1A1.78,1.78,0,0,1,224,57.58a1.63,1.63,0,0,1-.59,1.3,2.15,2.15,0,0,1-1.47.55,4.87,4.87,0,0,1-3.9-2,6.24,6.24,0,0,1-1.35-4.11C216.65,52.74,216.71,51.81,216.82,50.53Zm5.25-13.82A4.24,4.24,0,0,0,221,35.35a2,2,0,0,0-1.26-.45q-3.19,0-6.93,5.59-4.12,6.16-4.12,10.46a2.7,2.7,0,0,0,.4,1.59,1.39,1.39,0,0,0,1.2.55q2,0,4.7-4.29a68.48,68.48,0,0,0,3.74-6.92,35.83,35.83,0,0,1,2.14-4A6.26,6.26,0,0,1,222.07,36.71Z" transform="translate(-0.39 -0.26)"/><path d="M242.23,46a45.8,45.8,0,0,1-4.41,6.55q-4.5,5.3-7.48,5.29a3,3,0,0,1-2.77-2,5.86,5.86,0,0,1-.67-2.73q0-2.77,2.39-8,2.15-4.57,3.61-7.22a22.74,22.74,0,0,0,1.31-2.48,11.51,11.51,0,0,1,.88-1.72,1.68,1.68,0,0,1,1.51-.88,1.16,1.16,0,0,1,.88.42,1.75,1.75,0,0,1,.42,1.17q0,1.89-3.4,8.44t-3.4,8.57c0,.89.35,1.34,1.05,1.34q1.8,0,5.12-4.7a41.8,41.8,0,0,0,3.07-5.34c0-.69-.05-1.23-.05-1.59a12,12,0,0,1,1.18-5.46c1-2,2.36-3,4.07-3,1,0,1.47.59,1.47,1.76q0,2.82-2.94,8.27a4.76,4.76,0,0,0,5-1.59,5.78,5.78,0,0,1,2.31-1.43,1.35,1.35,0,0,1,1,.55,1.41,1.41,0,0,1,.38.92c0,1-.7,2.14-2.1,3.4A8.14,8.14,0,0,1,245,46.7,7,7,0,0,1,242.23,46Z" transform="translate(-0.39 -0.26)"/><path d="M253.82,49.39v.76a2.71,2.71,0,0,0,.46,1.59,3.85,3.85,0,0,0,3.44,1.56q5.25,0,12.14-8.07c.81-.92,1.49-1.38,2.05-1.38a1.07,1.07,0,0,1,.84.46,1.1,1.1,0,0,1,.26.63q0,1.64-4,5.54a30.18,30.18,0,0,1-6.71,5,14.07,14.07,0,0,1-6.64,1.93,6.08,6.08,0,0,1-5-2.18,6.34,6.34,0,0,1-1.22-4.12q0-7.09,6.68-13.9,5.42-5.53,9.44-5.54a3.24,3.24,0,0,1,2,.67,2.85,2.85,0,0,1,1.09,2.31,10.81,10.81,0,0,1-2.06,5.46A21.9,21.9,0,0,1,253.82,49.39Zm.92-3.27a17.11,17.11,0,0,0,4.62-2.27A18.69,18.69,0,0,0,264,38.73a3.55,3.55,0,0,0,.63-1.81c0-.56-.27-.84-.8-.84-.73,0-1.76.55-3.11,1.64A21.48,21.48,0,0,0,254.74,46.12Z" transform="translate(-0.39 -0.26)"/><path d="M281.91,43.05c.36-.34.71-.67,1-1q8.78-8.57,11.76-8.56c1.09,0,1.63.6,1.63,1.8a5,5,0,0,1-1.47,3q-8,9.38-8,16.51a8.44,8.44,0,0,0,1.26,4.41,3.25,3.25,0,0,1,.59,1.51,1.34,1.34,0,0,1-.5,1,1.74,1.74,0,0,1-1.3.59c-1.15,0-2.12-.73-2.9-2.18a10.18,10.18,0,0,1-1.14-5q0-5.67,4.29-12.56-5.71,3.66-10.63,12.94c-.84,1.48-1.73,2.22-2.68,2.22a1.51,1.51,0,0,1-1.18-.5,2.06,2.06,0,0,1-.59-1.51q0-2.26,5.17-11.89c1.84-3.47,3.3-6,4.36-7.55s2-2.31,2.73-2.31a1.45,1.45,0,0,1,1.05.5,1.82,1.82,0,0,1,.59,1.34,5.29,5.29,0,0,1-1.22,2.65A46.39,46.39,0,0,0,281.91,43.05Z" transform="translate(-0.39 -0.26)"/><path d="M.39,61.23v-48H18.25a27.44,27.44,0,0,1,13.12,3.06,21.81,21.81,0,0,1,8.87,8.52,24.52,24.52,0,0,1,3.15,12.46A24.41,24.41,0,0,1,40.24,49.7a21.8,21.8,0,0,1-8.87,8.49,27.55,27.55,0,0,1-13.12,3Zm8.44-7.42h9.42a16.86,16.86,0,0,0,8.86-2.27,14.73,14.73,0,0,0,5.71-6,17.84,17.84,0,0,0,1.92-8.3,16.83,16.83,0,0,0-4.36-11.93Q26,20.63,18.25,20.62H8.83Z" transform="translate(-0.39 -0.26)" style="fill:#0496ff"/><path d="M51.51,61.23v-48H84.42v7.41H60V33.07h24v7.42H60V53.81H84.42v7.42Z" transform="translate(-0.39 -0.26)" style="fill:#0496ff"/><path d="M88,13.21h9.56l14.56,38.88,14.55-38.88h9.57l-18.85,48H106.88Z" transform="translate(-0.39 -0.26)" style="fill:#0496ff"/></svg>